<?xml version="1.0" encoding="UTF-8"?>
<svg id="Capa_2" data-name="Capa 2" xmlns="http://www.w3.org/2000/svg" viewBox="0 0 18.61 18.06">
  <g id="Capa_1-2" data-name="Capa 1">
    <path d="M14.25,11.43c-.81-.8-1.61-1.6-2.42-2.4,.81-.8,1.61-1.6,2.42-2.4,1.36-1.36,2.73-2.71,4.09-4.07,.36-.35,.36-.81,0-1.17-.37-.38-.75-.75-1.13-1.13-.33-.33-.77-.36-1.11-.04-.67,.63-1.32,1.27-1.97,1.91-1.17,1.14-2.34,2.29-3.5,3.44-.41,.41-.81,.85-1.21,1.28-.05,0-.11-.02-.16-.01-.11-.1-.19-.17-.26-.24-1.22-1.2-2.44-2.39-3.66-3.59-.92-.91-1.85-1.81-2.76-2.73-.33-.34-.88-.38-1.23,0-.35,.37-.71,.73-1.07,1.07-.37,.35-.34,.9,0,1.23,1.18,1.15,2.34,2.31,3.51,3.47,1,.99,1.99,1.98,2.98,2.97-.99,.99-1.99,1.98-2.98,2.97-1.17,1.16-2.33,2.32-3.51,3.47-.34,.34-.38,.88,0,1.23,.37,.35,.73,.7,1.07,1.07,.36,.38,.9,.34,1.23,0,.91-.92,1.84-1.82,2.76-2.73,1.22-1.2,2.44-2.39,3.66-3.59,.07-.07,.16-.15,.26-.24,.06,0,.11,0,.16-.01,.41,.43,.8,.87,1.21,1.28,1.16,1.15,2.33,2.3,3.5,3.44,.65,.64,1.31,1.28,1.97,1.91,.34,.32,.78,.29,1.11-.04,.38-.37,.75-.75,1.13-1.13,.35-.35,.35-.81,0-1.17-1.36-1.36-2.73-2.71-4.09-4.07Z"/>
  </g>
</svg>