<?xml version="1.0" encoding="UTF-8"?>
<svg id="Capa_2" data-name="Capa 2" xmlns="http://www.w3.org/2000/svg" xmlns:xlink="http://www.w3.org/1999/xlink" viewBox="0 0 119 119">
  <defs>
    <style>
      .cls-1 {
        fill: url(#Degradado_sin_nombre_12);
      }
    </style>
    <linearGradient id="Degradado_sin_nombre_12" data-name="Degradado sin nombre 12" x1="0" y1="59.5" x2="119" y2="59.5" gradientUnits="userSpaceOnUse">
      <stop offset="0" stop-color="#eed39a"/>
      <stop offset="1" stop-color="#ee88ae"/>
    </linearGradient>
  </defs>
  <g id="Capa_1-2" data-name="Capa 1">
    <g>
      <circle class="cls-1" cx="59.5" cy="59.5" r="59.5"/>
      <g>
        <path d="M30.38,94.77V16.68h57.22v53.65c.99,.22,1.89,.46,2.79,.62,3.47,.59,6.05,3.35,6.15,6.88,.1,3.44,.25,6.9-.73,10.28-.57,1.97-1.34,3.85-2.46,5.55-1.8,2.73-4.08,4.94-7.01,6.52-5.22,2.8-10.51,2.78-15.82,.52-2.48-1.05-4.61-2.77-6.29-4.88-.7-.88-1.36-1.05-2.34-1.05-10.17,.02-20.35,.01-30.52,.01h-.99Zm4.73-73.08V89.69h25.29c-.42-2.59-.84-5.14-1.27-7.81h-19.3v-5c.27,0,.48,0,.69,0,6.3,0,12.61,0,18.91,0,.47,0,.8-.07,1.1-.52,.42-.64,.93-1.26,1.52-1.75,.59-.48,1.33-.79,2-1.17v-1.62h-24.24v-5.01h24.22v-5.04h-24.21v-5.04h24.19c.1-1.7,.19-3.31,.28-5.01h-24.48v-4.95c.14-.02,.24-.04,.34-.04,10.41,0,20.82-.03,31.23,.04,1.1,0,2.31,.37,3.26,.94,2.44,1.47,3.56,3.8,3.57,6.62,.02,4.6,0,9.2,0,13.8,0,.28,0,.56,0,.87,1.59,.23,3.11,.44,4.67,.66V21.69H35.11Zm33.69,56.43c-.97,0-1.8-.01-2.64,0-1.04,.02-2.04,.93-2.05,1.97,0,1.56-.05,3.15,.17,4.69,.69,4.87,3.28,8.54,7.5,11,1.71,1,3.65,1.4,5.64,1.47,4.73,.16,8.47-1.79,11.35-5.47,1.45-1.86,2.5-3.96,2.76-6.3,.27-2.43,.27-4.89,.32-7.34,.02-.93-.53-1.65-1.39-2.01-.57-.24-1.17-.42-1.78-.51-2.94-.45-5.89-.86-8.84-1.28-2.09-.3-4.18-.61-6.33-.92v-.89c0-5.91,0-11.81,0-17.72,0-.41-.04-.84-.13-1.24-.35-1.59-2.13-2.3-3.5-1.41-.87,.56-1.08,1.42-1.07,2.38,0,7.53,0,15.05,0,22.58v1Z"/>
        <path d="M78.16,41.7H39.81v-14.96h38.35v14.96Zm-4.71-5.02v-4.92h-28.93v4.92h28.93Z"/>
      </g>
    </g>
  </g>
</svg>