<?xml version="1.0" encoding="UTF-8"?>
<svg id="Capa_2" data-name="Capa 2" xmlns="http://www.w3.org/2000/svg" xmlns:xlink="http://www.w3.org/1999/xlink" viewBox="0 0 119 119">
  <defs>
    <style>
      .cls-1 {
        fill: url(#Degradado_sin_nombre_8);
      }
    </style>
    <linearGradient id="Degradado_sin_nombre_8" data-name="Degradado sin nombre 8" x1="0" y1="59.5" x2="119" y2="59.5" gradientUnits="userSpaceOnUse">
      <stop offset="0" stop-color="#e5b3f8"/>
      <stop offset="1" stop-color="#90e7f2"/>
    </linearGradient>
  </defs>
  <g id="Capa_1-2" data-name="Capa 1">
    <g>
      <circle class="cls-1" cx="59.5" cy="59.5" r="59.5"/>
      <g>
        <path d="M68.58,27.87c.23-1.37,1.05-1.95,2.34-1.94,4.84,.04,9.69,.02,14.53,.02,1.37,0,1.98,.51,2.24,1.92,.17,0,.36,0,.55,0,3.42,0,6.85-.01,10.27,0,1.01,0,1.9,.34,2.6,1.12,.4,.45,.57,.96,.57,1.56,0,15.37,0,30.74,0,46.11,0,4.42,0,8.84,0,13.26,0,1.89-1.24,3.14-3.16,3.14-5.04,0-10.08,0-15.12,0-9.05,0-18.1,0-27.15,0-.84,0-1.61-.18-2.31-.66-.73-.51-1.15-1.18-1.15-2.09,0-13.21,0-26.41,0-39.62,0-6.57,.07-13.14-.04-19.7-.03-2.16,1.71-3.12,3.18-3.12,3.92,0,7.84,0,11.77,0,.28,0,.57,0,.88,0Zm.01,3.88c-.05-.02-.07-.03-.09-.03-3.74-.02-7.49-.03-11.23-.04-.44,0-.64,.24-.65,.67,0,.5,0,.99,0,1.49,0,18.07,0,36.14,0,54.21,0,.81,.33,1.15,1.15,1.17,.21,0,.43,0,.64,0,10.84,0,21.69,0,32.53,0,1.9,0,3.8,0,5.7,0,.82,0,1.19-.34,1.19-1.08,0-6.57,0-13.13,0-19.7,0-7.99,0-15.97,0-23.96,0-3.99,0-7.99,0-11.98,0-.68-.23-.87-.92-.82-.23,.02-.46,.03-.69,.03-2.66,0-5.32,0-7.99,0-.19,0-.38,0-.55,0-.21,1.33-.9,1.92-2.18,1.92-4.9,0-9.8-.03-14.69,.02-1.1,.01-2.06-.62-2.22-1.89Zm3.65-3.06c-.52,0-.91,.41-.89,.91,.02,.46,.44,.89,.88,.89,.48,0,.92-.43,.92-.91,0-.51-.39-.9-.91-.89Zm12.68,.87c0-.5-.41-.88-.93-.87-.49,.01-.86,.39-.86,.88,0,.5,.4,.91,.9,.92,.46,0,.9-.45,.89-.93Z"/>
        <path d="M48.94,71.01v4.8c-.37,0-.72,0-1.07,0-9.25,0-18.49,0-27.74,0-1.79,0-2.8-1.01-2.8-2.8,0-12.9,.02-25.81-.02-38.71,0-1.77,1.08-2.58,2.61-2.58,6.23-.02,12.46,0,18.69,0,3.09,0,6.18,0,9.26,0,.34,0,.67,0,1.05,0v4.8c-.2,0-.4,0-.61,0-8.36,0-16.72,0-25.07,0-1.05,0-1.11,.06-1.11,1.12,0,10.69,0,21.37,0,32.06,0,1.13,.2,1.34,1.33,1.34,8.32,0,16.65,0,24.97,0,.16,0,.31,0,.51,0Z"/>
        <path d="M24.08,43.34c1.55,.54,2.99,1.2,4.38,1.98,3.42,1.91,5.05,4.96,5.73,8.68,.18,.97,.39,1.95,.75,2.87,.55,1.37,1.63,2.35,2.8,3.2,2.65,1.93,5.58,2.16,8.65,1.34,.86-.23,1.7-.57,2.55-.87v8.53H24.08v-25.71Z"/>
        <path d="M48.93,85.38h-6.64v-7.63h6.64v7.63Z"/>
        <path d="M30.78,89.19v-1.86h18.15v1.86H30.78Z"/>
        <path d="M70.99,39.41v10.48h-10.48v-10.48h10.48Zm-1.94,8.57v-6.66h-6.62v6.66h6.62Z"/>
        <path d="M60.48,66.18v-10.48h10.48v10.48h-10.48Zm8.58-8.56h-6.64v6.65h6.64v-6.65Z"/>
        <path d="M70.97,82.49h-10.48v-10.49h10.48v10.49Zm-8.57-1.94h6.66v-6.62h-6.66v6.62Z"/>
        <path d="M93.98,41.32v1.86h-20.06v-1.86h20.06Z"/>
        <path d="M73.9,57.55v-1.86h19.11v1.86h-19.11Z"/>
        <path d="M92.07,63.37v1.86h-18.15v-1.86h18.15Z"/>
        <path d="M73.9,47.01v-1.86h17.19v1.86h-17.19Z"/>
        <path d="M73.9,75.77v-1.86h16.23v1.86h-16.23Z"/>
        <path d="M73.9,61.4v-1.86h15.29v1.86h-15.29Z"/>
        <path d="M73.9,79.6v-1.86h10.48v1.86h-10.48Z"/>
      </g>
    </g>
  </g>
</svg>