<?xml version="1.0" encoding="UTF-8"?>
<svg id="Capa_2" data-name="Capa 2" xmlns="http://www.w3.org/2000/svg" xmlns:xlink="http://www.w3.org/1999/xlink" viewBox="0 0 119 119">
  <defs>
    <style>
      .cls-1 {
        fill: url(#Degradado_sin_nombre_12);
      }
    </style>
    <linearGradient id="Degradado_sin_nombre_12" data-name="Degradado sin nombre 12" x1="0" y1="59.5" x2="119" y2="59.5" gradientUnits="userSpaceOnUse">
      <stop offset="0" stop-color="#eed39a"/>
      <stop offset="1" stop-color="#ee88ae"/>
    </linearGradient>
  </defs>
  <g id="Capa_1-2" data-name="Capa 1">
    <g>
      <circle class="cls-1" cx="59.5" cy="59.5" r="59.5"/>
      <g>
        <path d="M99.58,40.11c-.38,.94-1.07,1.31-2.08,1.29-2.19-.04-4.38,0-6.57-.02-1.26-.01-2.06-.96-1.66-2.03,.16-.44,.65-.82,1.08-1.1,.25-.17,.66-.13,.99-.13,2.01,0,4.02,.01,6.02-.01,.99-.01,1.78,.28,2.23,1.22v.78Z"/>
        <path d="M69.23,93.2c0,1.29,0,2.48,0,3.68,0,1.51-.58,2.1-2.07,2.11-5.11,0-10.23,0-15.34,0-1.48,0-2.06-.59-2.07-2.11,0-1.19,0-2.39,0-3.68-.69,0-1.31,0-1.93,0-1.21-.02-1.82-.6-1.9-1.8-.01-.18,0-.37,0-.55,0-6.21,0-12.42,0-18.63,0-1.72,.3-2.1,2-2.47,.05-2.25,.14-4.54-.8-6.66-.36-.81-.93-1.57-1.55-2.22-2.54-2.68-4.89-5.48-6.59-8.79-2.11-4.09-2.8-8.41-1.94-12.9,1.71-9,6.93-15.17,15.63-17.96,8.08-2.59,15.53-.89,21.96,4.69,4.4,3.82,6.84,8.74,7.54,14.51,.59,4.85-.58,9.31-3.13,13.44-1.5,2.43-3.26,4.67-5.32,6.64-1.77,1.69-2.48,3.75-2.62,6.08-.06,1.06-.01,2.13-.01,3.18,1.68,.37,1.98,.75,1.98,2.47,0,6.21,0,12.42,0,18.63,0,1.85-.51,2.35-2.38,2.36-.44,0-.89,0-1.46,0Zm-5.72-42.25c.94-.43,1.81-.84,2.68-1.24,.65-.29,1.28-.25,1.82,.24,.54,.48,.68,1.09,.46,1.78-.06,.17-.11,.35-.17,.52-1.81,5.57-3.62,11.14-5.43,16.72-.09,.27-.17,.53-.25,.8h5.16c0-.85-.01-1.63,0-2.41,.06-3.66,1.16-6.83,3.87-9.49,1.71-1.68,3.17-3.67,4.53-5.67,1.49-2.19,2.45-4.66,2.72-7.33,.53-5.22-.9-9.89-4.08-14.05-4.91-6.43-14.05-9.13-21.66-6.38-6.05,2.19-10.17,6.33-12.22,12.41-1.58,4.69-1.35,9.33,.96,13.8,1.49,2.88,3.49,5.38,5.78,7.64,2.01,1.98,3.1,4.35,3.35,7.12,.13,1.44,.17,2.9,.25,4.38h5.3c-.11-.36-.19-.66-.29-.94-1.89-5.57-3.77-11.15-5.67-16.72-.27-.8-.35-1.54,.33-2.16,.65-.6,1.37-.47,2.11-.15,.92,.4,1.86,.77,2.82,1.17,.74-1.26,1.44-2.45,2.15-3.63,.89-1.49,2.24-1.52,3.18-.05,.76,1.19,1.5,2.38,2.29,3.65Zm-14.29,32.19c.39,0,.7,0,1,0,4.59,0,9.18,0,13.78,0,.34,0,.68,0,1.01,.06,.72,.14,1.22,.77,1.24,1.51,.02,.78-.45,1.43-1.21,1.6-.35,.08-.72,.1-1.09,.1-4.59,0-9.18,0-13.78,0-.3,0-.61,0-.94,0v3.45h20.52v-9.97c-.32,0-.6,0-.88,0-4.15,0-8.3,0-12.45,0-.47,0-.94,.02-1.41-.02-.87-.07-1.47-.69-1.51-1.51-.05-.85,.44-1.49,1.31-1.67,.3-.06,.62-.08,.93-.08,4.36,0,8.71,0,13.07,0h.92v-3.44h-20.53v9.96Zm5.55-29.01c1.61,4.77,3.19,9.41,4.84,14.29,1.57-4.82,3.06-9.4,4.57-14.05-1.92,.51-2.12,.42-3.15-1.2-.43-.68-.86-1.36-1.35-2.13-.49,.83-.94,1.58-1.39,2.34-.81,1.37-1.38,1.57-2.83,1-.18-.07-.38-.13-.69-.23Zm11.15,39.11h-12.83v2.4h12.83v-2.4Z"/>
        <path d="M24.64,41.39c-1.12,0-2.24,.01-3.37,0-1.11-.02-1.83-.66-1.85-1.6-.01-.93,.7-1.64,1.8-1.66,2.27-.03,4.54-.03,6.81,0,1.1,.02,1.82,.73,1.81,1.65,0,.97-.74,1.6-1.92,1.61-1.1,.01-2.19,0-3.29,0Z"/>
        <path d="M24.01,49.89c.39-.57,.61-1.1,1-1.41,1.37-1.09,2.78-2.11,4.2-3.12,.86-.61,1.82-.46,2.36,.28,.54,.74,.39,1.7-.45,2.34-1.39,1.06-2.8,2.09-4.21,3.12-.57,.41-1.24,.58-1.82,.15-.42-.31-.68-.83-1.09-1.36Z"/>
        <path d="M94.85,49.81c-.14,1.28-1.41,2.12-2.44,1.45-1.67-1.1-3.27-2.33-4.83-3.58-.63-.51-.62-1.44-.15-2.06,.48-.65,1.38-.9,2.09-.41,1.6,1.11,3.17,2.29,4.7,3.49,.31,.24,.42,.73,.63,1.1Z"/>
        <path d="M24.25,29.99c.03-1.48,1.17-2.23,2.22-1.78,.26,.11,.5,.27,.73,.44,1.28,.94,2.57,1.88,3.83,2.84,.92,.7,1.1,1.65,.51,2.45-.55,.74-1.53,.83-2.43,.18-1.35-.98-2.71-1.95-4.01-2.99-.43-.34-.68-.9-.85-1.14Z"/>
        <path d="M94.99,29.64c-.41,.58-.65,1.12-1.05,1.45-1.34,1.07-2.74,2.08-4.14,3.08-.85,.61-1.84,.48-2.36-.25-.55-.76-.42-1.71,.41-2.35,1.4-1.08,2.84-2.13,4.27-3.17,.54-.39,1.2-.54,1.75-.13,.42,.31,.69,.82,1.12,1.36Z"/>
      </g>
    </g>
  </g>
</svg>