<?xml version="1.0" encoding="UTF-8"?>
<svg id="Capa_2" data-name="Capa 2" xmlns="http://www.w3.org/2000/svg" xmlns:xlink="http://www.w3.org/1999/xlink" viewBox="0 0 119 119">
  <defs>
    <style>
      .cls-1 {
        fill: url(#Degradado_sin_nombre_8);
      }
    </style>
    <linearGradient id="Degradado_sin_nombre_8" data-name="Degradado sin nombre 8" x1="0" y1="59.5" x2="119" y2="59.5" gradientUnits="userSpaceOnUse">
      <stop offset="0" stop-color="#e5b3f8"/>
      <stop offset="1" stop-color="#90e7f2"/>
    </linearGradient>
  </defs>
  <g id="Capa_1-2" data-name="Capa 1">
    <g>
      <circle class="cls-1" cx="59.5" cy="59.5" r="59.5"/>
      <g>
        <path d="M35.39,59.49c0-1.26,0-2.51,0-3.77,.01-1.09,.5-1.56,1.6-1.57,.81,0,1.62-.03,2.43,0,.53,.03,.77-.14,.95-.66,.4-1.13,.86-2.23,1.38-3.31,.23-.47,.16-.74-.2-1.07-.63-.59-1.24-1.2-1.84-1.83-.67-.71-.69-1.38-.01-2.06,1.82-1.85,3.66-3.68,5.5-5.5,.69-.68,1.36-.68,2.06-.02,.67,.63,1.28,1.32,1.97,1.93,.18,.16,.6,.22,.83,.13,1.2-.45,2.38-.94,3.54-1.47,.23-.1,.48-.43,.5-.67,.06-.92,0-1.84,.03-2.76,.02-.94,.52-1.44,1.47-1.45,2.59-.02,5.19-.02,7.78,0,.94,0,1.43,.52,1.45,1.47,.02,.89,.02,1.79,0,2.68-.01,.42,.1,.62,.54,.77,1.18,.43,2.33,.91,3.46,1.44,.44,.2,.69,.16,1-.18,.59-.63,1.21-1.24,1.83-1.84,.74-.7,1.41-.72,2.12-.01,1.83,1.8,3.64,3.62,5.45,5.44,.72,.73,.72,1.39,.02,2.12-.61,.65-1.24,1.28-1.9,1.89-.32,.3-.33,.54-.15,.94,.52,1.14,1,2.29,1.44,3.47,.15,.41,.32,.57,.76,.56,.89-.03,1.79-.02,2.68,0,.98,.02,1.49,.52,1.49,1.51,.01,2.57,.01,5.13,0,7.7,0,.98-.52,1.47-1.51,1.49-.81,.02-1.62,.04-2.43,0-.58-.03-.87,.13-1.06,.74-.34,1.06-.76,2.1-1.27,3.08-.31,.59-.24,.93,.24,1.34,.59,.51,1.12,1.08,1.66,1.65,.74,.77,.75,1.43,0,2.19-1.78,1.81-3.58,3.6-5.39,5.39-.76,.75-1.41,.75-2.18,.01-.64-.62-1.24-1.28-1.92-1.87-.18-.16-.6-.22-.83-.13-1.2,.45-2.38,.95-3.54,1.48-.23,.1-.49,.43-.5,.67-.06,.89-.01,1.78-.03,2.68-.02,1.04-.51,1.53-1.56,1.53-2.54,.01-5.08,.01-7.62,0-1.04,0-1.52-.51-1.53-1.56-.01-.86-.02-1.73,0-2.59,.01-.42-.11-.62-.54-.78-1.2-.44-2.36-.99-3.56-1.43-.23-.09-.64-.01-.83,.15-.67,.59-1.27,1.26-1.91,1.87-.74,.7-1.41,.71-2.12,0-1.83-1.8-3.64-3.62-5.45-5.45-.72-.73-.71-1.39-.01-2.12,.62-.65,1.24-1.29,1.89-1.89,.33-.3,.32-.55,.14-.94-.52-1.14-1.01-2.29-1.44-3.47-.15-.41-.33-.57-.76-.55-.86,.03-1.73,.02-2.59,0-1.09-.02-1.57-.5-1.57-1.6-.01-1.26,0-2.51,0-3.77Zm2.7,2.69c.93,0,1.87,0,2.8,0,1.01,0,1.34,.36,1.69,1.27,.65,1.74,1.35,3.46,2.12,5.15,.47,1.02,.51,1.41-.32,2.22-.63,.62-1.31,1.2-1.86,1.71,1.37,1.37,2.6,2.6,3.93,3.92,.56-.6,1.17-1.28,1.82-1.93,.7-.71,1.14-.69,2.02-.29,1.74,.78,3.51,1.51,5.3,2.2,.87,.33,1.23,.68,1.24,1.64,0,.94,0,1.87,0,2.8h5.31c.02-.12,.04-.17,.04-.23,0-.84,0-1.67,0-2.51,0-1.05,.35-1.36,1.34-1.72,1.72-.63,3.41-1.33,5.07-2.1,1.03-.48,1.41-.52,2.22,.29,.64,.64,1.25,1.32,1.79,1.89,1.36-1.36,2.58-2.57,3.91-3.91-.62-.58-1.31-1.18-1.96-1.83-.74-.74-.71-1.15-.29-2.09,.78-1.72,1.5-3.46,2.16-5.22,.35-.91,.68-1.25,1.7-1.26,.91,0,1.82,0,2.75,0v-5.29c-.11-.03-.16-.06-.21-.06-.84,0-1.67,0-2.51-.01-1.07,0-1.39-.34-1.74-1.31-.63-1.72-1.32-3.42-2.09-5.08-.5-1.07-.54-1.43,.32-2.28,.63-.62,1.28-1.22,1.86-1.78-1.33-1.34-2.54-2.56-3.91-3.94-.59,.65-1.18,1.35-1.82,2-.75,.77-1.17,.72-2.16,.27-1.66-.77-3.35-1.47-5.07-2.1-1.02-.37-1.36-.67-1.36-1.79,0-.91,0-1.81,0-2.69h-5.36c0,.96,0,1.88,0,2.79,0,1-.37,1.33-1.29,1.67-1.74,.65-3.46,1.36-5.15,2.13-.98,.45-1.39,.49-2.15-.29-.64-.65-1.23-1.35-1.72-1.89-1.39,1.38-2.63,2.61-3.94,3.91,.55,.52,1.19,1.1,1.8,1.71,.85,.84,.81,1.22,.3,2.29-.76,1.63-1.45,3.3-2.07,4.99-.38,1.04-.67,1.38-1.77,1.38-.91,0-1.82,0-2.74,0v5.36Z"/>
        <path d="M25.23,53.03c-.86-.16-1.68-.31-2.62-.48,2.48-11.57,8.85-20.18,19.09-26.08-.27-.82-.55-1.66-.81-2.5-.39-1.26,.33-2.11,1.63-1.93,2.95,.42,5.9,.86,8.86,1.27,.64,.09,1.12,.34,1.34,.96,.22,.64-.08,1.13-.52,1.57-2.09,2.09-4.18,4.19-6.28,6.27-1.03,1.02-2.05,.76-2.53-.62-.27-.76-.52-1.52-.83-2.42-9.29,5.49-15.03,13.4-17.34,23.97Zm20.04-24.38c1.04-1.04,2.04-2.04,3.06-3.06-1.33-.19-2.74-.39-4.28-.61,.44,1.34,.85,2.56,1.22,3.67Z"/>
        <path d="M92.55,41.71c.88-.29,1.72-.58,2.57-.84,1.16-.35,2.02,.37,1.85,1.58-.42,3.04-.84,6.07-1.34,9.1-.07,.43-.52,.97-.92,1.13-.36,.14-1.04-.04-1.34-.33-2.25-2.17-4.46-4.38-6.64-6.62-.79-.81-.49-1.87,.57-2.27,.83-.31,1.68-.56,2.66-.89-5.49-9.31-13.41-15.05-23.98-17.35,.15-.83,.3-1.66,.47-2.64,11.57,2.5,20.2,8.85,26.1,19.12Zm-2.15,3.55c.99,1,2.01,2.02,3.02,3.03,.19-1.31,.39-2.72,.6-4.24-1.34,.45-2.56,.85-3.63,1.21Z"/>
        <path d="M77.3,92.55c.27,.84,.56,1.68,.82,2.53,.37,1.21-.35,2.07-1.6,1.9-3.01-.42-6.02-.84-9.02-1.33-.44-.07-1.02-.49-1.16-.88-.14-.39,.03-1.1,.32-1.41,2.14-2.23,4.34-4.42,6.55-6.59,.85-.83,1.91-.56,2.32,.55,.31,.83,.57,1.67,.88,2.6,4.58-2.57,8.32-5.93,11.33-10.09,3-4.14,4.98-8.74,5.97-13.78,.21,0,.38-.02,.53,0,.68,.12,1.36,.26,2.14,.42-2.49,11.57-8.87,20.19-19.1,26.08Zm-2.35,1.48c-.45-1.34-.86-2.56-1.21-3.61-1,.99-2.02,2-3.04,3.01,1.32,.19,2.73,.38,4.25,.6Z"/>
        <path d="M26.5,77.29c-.89,.29-1.73,.57-2.57,.83-1.2,.37-2.07-.35-1.89-1.61,.42-3.01,.84-6.02,1.33-9.02,.07-.44,.49-1.01,.88-1.16,.39-.14,1.1,.03,1.41,.33,2.23,2.14,4.42,4.34,6.58,6.55,.83,.85,.55,1.89-.57,2.32-.83,.31-1.67,.57-2.63,.9,5.5,9.31,13.43,15.05,23.91,17.31,0,.19,.02,.35,0,.51-.12,.68-.26,1.35-.41,2.09-5.6-1.07-10.63-3.27-15.17-6.6-4.54-3.33-8.15-7.49-10.88-12.47Zm-1.52-2.34c1.34-.45,2.56-.85,3.63-1.21-1-1-2.02-2.02-3.03-3.04-.19,1.31-.39,2.72-.6,4.25Z"/>
        <path d="M59.5,19.32c2.22,0,4.03,1.83,4.01,4.06-.02,2.18-1.83,3.97-4.02,3.97-2.22,0-4.03-1.84-4.01-4.06,.02-2.18,1.83-3.97,4.02-3.97Zm1.33,4.03c.01-.72-.59-1.34-1.31-1.35-.72-.01-1.34,.59-1.35,1.31-.01,.72,.59,1.34,1.31,1.35,.72,.01,1.34-.59,1.35-1.31Z"/>
        <path d="M27.35,59.53c-.01,2.19-1.81,3.98-4,3.99-2.22,0-4.04-1.82-4.03-4.04,.01-2.22,1.86-4.02,4.08-3.99,2.18,.03,3.96,1.85,3.95,4.04Zm-4.03-1.36c-.73,0-1.33,.62-1.32,1.35,0,.73,.62,1.33,1.35,1.32,.72,0,1.33-.62,1.32-1.35,0-.73-.62-1.33-1.35-1.32Z"/>
        <path d="M99.68,59.47c.01,2.22-1.81,4.05-4.03,4.04-2.19,0-3.99-1.8-4-3.99-.01-2.22,1.81-4.05,4.03-4.04,2.19,0,3.99,1.8,4,3.99Zm-4.01,1.36c.72,0,1.33-.61,1.33-1.34,0-.73-.61-1.33-1.34-1.33-.73,0-1.33,.61-1.33,1.34,0,.73,.61,1.33,1.34,1.33Z"/>
        <path d="M63.52,95.64c.01,2.22-1.81,4.05-4.03,4.04-2.19,0-3.99-1.81-4-3.99-.01-2.22,1.81-4.05,4.03-4.04,2.19,0,3.99,1.8,4,3.99Zm-4.01-1.31c-.73,0-1.33,.6-1.34,1.33,0,.73,.6,1.33,1.33,1.34,.72,0,1.33-.61,1.34-1.33,0-.72-.6-1.33-1.33-1.34Z"/>
        <path d="M72.89,59.52c0,7.39-6.05,13.4-13.45,13.38-7.35-.02-13.34-6.05-13.33-13.41,0-7.4,6.04-13.39,13.45-13.37,7.35,.02,13.34,6.04,13.33,13.41Zm-2.68-.06c-.01-5.88-4.84-10.68-10.74-10.67-5.88,0-10.69,4.83-10.69,10.71,0,5.92,4.85,10.74,10.78,10.71,5.87-.02,10.67-4.86,10.65-10.76Z"/>
      </g>
    </g>
  </g>
</svg>