<?xml version="1.0" encoding="UTF-8"?>
<svg id="Capa_2" data-name="Capa 2" xmlns="http://www.w3.org/2000/svg" xmlns:xlink="http://www.w3.org/1999/xlink" viewBox="0 0 119 119">
  <defs>
    <style>
      .cls-1 {
        fill: url(#Degradado_sin_nombre_8);
      }
    </style>
    <linearGradient id="Degradado_sin_nombre_8" data-name="Degradado sin nombre 8" x1="0" y1="59.5" x2="119" y2="59.5" gradientUnits="userSpaceOnUse">
      <stop offset="0" stop-color="#e5b3f8"/>
      <stop offset="1" stop-color="#90e7f2"/>
    </linearGradient>
  </defs>
  <g id="Capa_1-2" data-name="Capa 1">
    <g>
      <circle class="cls-1" cx="59.5" cy="59.5" r="59.5"/>
      <g>
        <path d="M95.47,95.48H23.62c0-3.77-.36-7.46,.11-11.05,.42-3.23,2.94-5.43,5.55-7.25,6.25-4.35,13.4-6.36,20.77-7.66,12.4-2.19,24.22-.06,35.5,5.28,2.14,1.01,4.11,2.48,5.95,3.99,2.82,2.31,4.18,5.36,3.99,9.1-.13,2.46-.02,4.93-.02,7.59Z"/>
        <path d="M59.47,59.44c-10.04,.02-18.06-7.92-18.08-17.9-.02-9.96,7.99-17.99,17.99-18.02,10-.03,18.06,7.96,18.08,17.93,.02,9.99-7.97,17.98-17.99,17.99Z"/>
      </g>
    </g>
  </g>
</svg>